<svg xmlns="http://www.w3.org/2000/svg" viewBox="0 0 526.42 28.63"><title>Asset 1</title><g id="Layer_2" data-name="Layer 2"><g id="Layer_1-2" data-name="Layer 1"><path d="M6.81,9.88,14.24,12a8.6,8.6,0,0,1,5.25,4.12,7.69,7.69,0,0,1,1,3.87,7.6,7.6,0,0,1-1,3.88A8.47,8.47,0,0,1,16.69,27a7.92,7.92,0,0,1-3.94,1.32,12.18,12.18,0,0,1-2.26.21A13.65,13.65,0,0,1,0,23.88l3.72-3.46a8.8,8.8,0,0,0,6.77,3,7.39,7.39,0,0,0,1.7-.2A3,3,0,0,0,15,21.37,2.32,2.32,0,0,0,15.46,20a2.55,2.55,0,0,0-.35-1.29,3.64,3.64,0,0,0-2.25-1.8v0L5.5,14.77a6.91,6.91,0,0,1-3.67-2.52A6.8,6.8,0,0,1,.42,8.05,6.85,6.85,0,0,1,1.88,3.77,9.33,9.33,0,0,1,7.82.24,13.57,13.57,0,0,1,10.39,0a14,14,0,0,1,9.48,3.56L16.53,7.4a9.08,9.08,0,0,0-6.14-2.3,8.85,8.85,0,0,0-1.71.17A4.25,4.25,0,0,0,5.9,6.91a1.86,1.86,0,0,0-.41,1.15A1.74,1.74,0,0,0,6.81,9.88Z"/><path d="M41.94,17.7a13,13,0,0,1-.49,3.7,9.77,9.77,0,0,1-4.55,5.93,9,9,0,0,1-4.72,1.3H31.8A9.09,9.09,0,0,1,26,26.58a10,10,0,0,1-3.49-5.18A13.42,13.42,0,0,1,22,17.7a14.55,14.55,0,0,1,.31-3,10.17,10.17,0,0,1,4.76-5.9A8.94,8.94,0,0,1,31.8,7.47h.38A9.13,9.13,0,0,1,36.9,8.8a10.2,10.2,0,0,1,4.73,5.9A15.28,15.28,0,0,1,41.94,17.7Zm-5.07.35A6.23,6.23,0,0,0,36.55,16a5.15,5.15,0,0,0-2.29-2.76,3.85,3.85,0,0,0-2.15-.66h-.24a3.86,3.86,0,0,0-2.16.66A5.43,5.43,0,0,0,27.42,16a6.24,6.24,0,0,0-.31,2.06,6.28,6.28,0,0,0,.31,2.06,5.58,5.58,0,0,0,2.29,2.79,3.86,3.86,0,0,0,2.16.66h.24a3.85,3.85,0,0,0,2.15-.66,5.29,5.29,0,0,0,2.29-2.79A6.27,6.27,0,0,0,36.87,18.05Z"/><path d="M49.1,20.32a3.2,3.2,0,0,0,6.4,0V8h5.07V28.35H55.5v-1a7.36,7.36,0,0,1-9.3-.87A7,7,0,0,1,44,21.37V8H49.1Z"/><path d="M63.73,13V7.89h2.05V2.83L70.85.35V7.89h2.53V13H70.85V22.1a1,1,0,0,0,1.08,1.08h.86v5.1H69.08a3.19,3.19,0,0,1-2.35-1,3.24,3.24,0,0,1-1-2.36V13Z"/><path d="M81.22,15.81V28.28H76.15V.35h5.07V8.73a7.46,7.46,0,0,1,9.17,1A7.29,7.29,0,0,1,92.65,15v13.3H87.58V15.81a3,3,0,0,0-1-2.2,3.15,3.15,0,0,0-2.23-.9,3.06,3.06,0,0,0-2.23.9A3.11,3.11,0,0,0,81.22,15.81Z"/><path d="M110.67,7.89l3.23,11.77,3.79-11.77h5.24l-6.56,20.39h-5.28l-3-11-3,11H99.73L93.17,7.89h5.27l3.79,11.77,3.23-11.77Z"/><path d="M142.05,19.31H127.88A4.9,4.9,0,0,0,129.07,22a4.68,4.68,0,0,0,2.56,1.53,6.3,6.3,0,0,0,1.25.11,6.19,6.19,0,0,0,4.2-1.57L140,26.18a11.54,11.54,0,0,1-7.19,2.45h-.45a9.1,9.1,0,0,1-5.49-1.78,10,10,0,0,1-4.24-8.45v-.49A10,10,0,0,1,126.9,9.5a9.09,9.09,0,0,1,10.91,0,9.67,9.67,0,0,1,4.24,8.16ZM136.66,16a4.14,4.14,0,0,0-1.47-2.61,4.35,4.35,0,0,0-5.67,0A4.14,4.14,0,0,0,128.05,16Z"/><path d="M146.06,21.54a10.68,10.68,0,0,0,4.75,1.88H152a8.84,8.84,0,0,0,2.05-.24,1.65,1.65,0,0,0,1-.66,1.14,1.14,0,0,0,.21-.7,1,1,0,0,0-.87-1.11h0l-6.88-1.63a4.8,4.8,0,0,1-2.87-1.95,5.78,5.78,0,0,1-1.09-3.43A5.65,5.65,0,0,1,147,8.52a12.36,12.36,0,0,1,3.61-.8h1.43a14.55,14.55,0,0,1,8.44,2.61l-2.82,4.12a11,11,0,0,0-5.83-1.64h-1.05a3.48,3.48,0,0,0-1.45.32,1,1,0,0,0,.13,1.81l.49.18,6.43,1.46a5.43,5.43,0,0,1,3.11,2,5.86,5.86,0,0,1,1.19,3.58,5.63,5.63,0,0,1-1.52,3.95,7.22,7.22,0,0,1-4.59,2.16,17.59,17.59,0,0,1-5.42,0,11.86,11.86,0,0,1-5.9-2.48Z"/><path d="M162.22,13V7.89h2.05V2.83L169.34.35V7.89h2.54V13h-2.54V22.1a1,1,0,0,0,1.08,1.08h.87v5.1h-3.72a3.28,3.28,0,0,1-3.3-3.32V13Z"/><path d="M192.92,19.31H178.75A5,5,0,0,0,180,22a4.62,4.62,0,0,0,2.55,1.53,6.45,6.45,0,0,0,1.25.11A6.22,6.22,0,0,0,188,22.1l2.95,4.08a11.54,11.54,0,0,1-7.19,2.45h-.45a9.1,9.1,0,0,1-5.49-1.78,10,10,0,0,1-4.24-8.45v-.49a9.93,9.93,0,0,1,4.24-8.41,9.09,9.09,0,0,1,10.91,0,9.66,9.66,0,0,1,4.23,8.16ZM187.54,16a4.11,4.11,0,0,0-1.48-2.61,4.34,4.34,0,0,0-5.66,0A4.14,4.14,0,0,0,178.93,16Z"/><path d="M195.08,7.89h5v1.5a10.46,10.46,0,0,1,5.73-1.67,11.19,11.19,0,0,1,2,.17v5.27a4.41,4.41,0,0,0-1.63-.31h-.32a5.16,5.16,0,0,0-2.81.8,5.85,5.85,0,0,0-2.95,4.43v10.2h-5Z"/><path d="M210,7.89h5.07v1a7.4,7.4,0,0,1,9.29.86,6.87,6.87,0,0,1,2.18,5.11V28.28h-5.08V16a3.2,3.2,0,0,0-6.39,0V28.28H210Z"/><path d="M240.51,28.28V.35h5.07V10.86h10.28V.35h5.07V28.28h-5.07V16H245.58V28.28Z"/><path d="M282.78,19.31H268.61A4.9,4.9,0,0,0,269.8,22a4.68,4.68,0,0,0,2.56,1.53,6.38,6.38,0,0,0,1.25.11,6.18,6.18,0,0,0,4.2-1.57l2.95,4.08a11.52,11.52,0,0,1-7.19,2.45h-.45a9.1,9.1,0,0,1-5.49-1.78,10,10,0,0,1-4.23-8.45v-.49a10,10,0,0,1,4.23-8.41,9.09,9.09,0,0,1,10.91,0,9.64,9.64,0,0,1,4.24,8.16ZM277.39,16a4.14,4.14,0,0,0-1.47-2.61,4.34,4.34,0,0,0-5.66,0A4.11,4.11,0,0,0,268.78,16Z"/><path d="M303.6,28.24h-5.07V26.92a7.7,7.7,0,0,1-3.23,1.46,8.26,8.26,0,0,1-2,.25,8.15,8.15,0,0,1-1.95-.25,9,9,0,0,1-5.7-5.06,15.18,15.18,0,0,1,0-10.3,9.54,9.54,0,0,1,4.9-4.75,8.36,8.36,0,0,1,2.92-.52A8,8,0,0,1,295.3,8a7,7,0,0,1,3.23,1.47V8h5.07Zm-5.07-12.43a4.28,4.28,0,0,0-3.41-3.28,2.84,2.84,0,0,0-.76-.1,3.3,3.3,0,0,0-2.15.77,5.61,5.61,0,0,0-2.12,3.73,8.66,8.66,0,0,0-.07,1.15,8.82,8.82,0,0,0,.07,1.16A5.68,5.68,0,0,0,292.21,23a3.43,3.43,0,0,0,2.15.73h.76a4.35,4.35,0,0,0,3.41-3.31Z"/><path d="M306.58.35h5.07V28.28h-5.07Z"/><path d="M314.07,13V7.89h2.05V2.83L321.19.35V7.89h2.53V13h-2.53V22.1a1,1,0,0,0,1.07,1.08h.87v5.1h-3.71a3.26,3.26,0,0,1-3.3-3.32V13Z"/><path d="M331.5,15.81V28.28h-5.07V.35h5.07V8.73a7.46,7.46,0,0,1,9.17,1A7.28,7.28,0,0,1,342.92,15v13.3h-5.07V15.81a2.92,2.92,0,0,0-1-2.2,3.12,3.12,0,0,0-2.23-.9,3,3,0,0,0-2.22.9A3.11,3.11,0,0,0,331.5,15.81Z"/><path d="M376,28.28h-5.7l-5.9-11.35h-3.09V28.28h-5.08V.35H367a7.93,7.93,0,0,1,5.85,2.43,8,8,0,0,1,2.42,5.88,8.13,8.13,0,0,1-1.48,4.73,8,8,0,0,1-3.94,3.05Zm-6.74-17.37a3.07,3.07,0,0,0,.94-2.25,3.12,3.12,0,0,0-.94-2.27A3.07,3.07,0,0,0,367,5.45h-5.69v6.39H367A3.1,3.1,0,0,0,369.24,10.91Z"/><path d="M395.36,19.31H381.19a4.84,4.84,0,0,0,1.2,2.72,4.62,4.62,0,0,0,2.55,1.53,6.38,6.38,0,0,0,1.25.11,6.18,6.18,0,0,0,4.2-1.57l3,4.08a11.54,11.54,0,0,1-7.19,2.45h-.46a9.09,9.09,0,0,1-5.48-1.78A10,10,0,0,1,376,18.4v-.49a9.93,9.93,0,0,1,4.24-8.41,9.07,9.07,0,0,1,10.9,0,9.64,9.64,0,0,1,4.24,8.16ZM390,16a4.36,4.36,0,0,0-7.14-2.61A4.16,4.16,0,0,0,381.36,16Z"/><path d="M399.84,21.54a10.67,10.67,0,0,0,4.76,1.88h1.21a8.77,8.77,0,0,0,2.05-.24,1.62,1.62,0,0,0,1-.66,1.14,1.14,0,0,0,.21-.7,1,1,0,0,0-.87-1.11h0l-6.88-1.63a4.78,4.78,0,0,1-2.86-1.95,5.79,5.79,0,0,1-1.1-3.43,5.65,5.65,0,0,1,3.44-5.17,12.36,12.36,0,0,1,3.61-.8h1.43a14.53,14.53,0,0,1,8.44,2.61l-2.81,4.12a11,11,0,0,0-5.84-1.64h-1a3.49,3.49,0,0,0-1.46.32.91.91,0,0,0-.52.87.92.92,0,0,0,.66.94l.48.18,6.43,1.46a5.43,5.43,0,0,1,3.11,2,5.81,5.81,0,0,1,1.2,3.58A5.6,5.6,0,0,1,413,26.15a7.18,7.18,0,0,1-4.59,2.16,17.53,17.53,0,0,1-5.41,0,11.86,11.86,0,0,1-5.91-2.48Z"/><path d="M436,17.7a13.42,13.42,0,0,1-.48,3.7,9.81,9.81,0,0,1-4.55,5.93,9.08,9.08,0,0,1-4.73,1.3h-.38A9,9,0,0,1,420,26.58a9.92,9.92,0,0,1-3.49-5.18,13,13,0,0,1-.49-3.7,14.55,14.55,0,0,1,.31-3,10.17,10.17,0,0,1,4.76-5.9,8.94,8.94,0,0,1,4.69-1.33h.38a9.16,9.16,0,0,1,4.73,1.33,10.22,10.22,0,0,1,4.72,5.9A14.55,14.55,0,0,1,436,17.7Zm-5.07.35a6.24,6.24,0,0,0-.31-2.06,5.24,5.24,0,0,0-2.29-2.76,3.89,3.89,0,0,0-2.16-.66h-.24a3.83,3.83,0,0,0-2.15.66,5.4,5.4,0,0,0-2.3,2.76,7,7,0,0,0,0,4.12,5.55,5.55,0,0,0,2.3,2.79,3.83,3.83,0,0,0,2.15.66h.24a3.89,3.89,0,0,0,2.16-.66,5.38,5.38,0,0,0,2.29-2.79A6.28,6.28,0,0,0,430.88,18.05Z"/><path d="M443.53,20.32a3.2,3.2,0,0,0,6.39,0V8H455V28.35h-5.07v-1a7.35,7.35,0,0,1-9.29-.87,6.92,6.92,0,0,1-2.17-5.13V8h5.07Z"/><path d="M458.42,7.89h5v1.5a10.46,10.46,0,0,1,5.73-1.67,11.19,11.19,0,0,1,2,.17v5.27a4.37,4.37,0,0,0-1.63-.31h-.31a5.19,5.19,0,0,0-2.82.8,5.87,5.87,0,0,0-2.95,4.43v10.2h-5Z"/><path d="M476.31,26.74a9.93,9.93,0,0,1-4.24-8.41v-.49a9.93,9.93,0,0,1,4.24-8.41A9.3,9.3,0,0,1,482,7.54a9.45,9.45,0,0,1,5.69,1.85l-2.95,4.12a4.55,4.55,0,0,0-5.35,0,5.11,5.11,0,0,0-2.26,4.4v.35a5.11,5.11,0,0,0,2.26,4.4,4.55,4.55,0,0,0,5.35,0l2.95,4.12A9.45,9.45,0,0,1,482,28.63,9.3,9.3,0,0,1,476.31,26.74Z"/><path d="M507.46,19.31H493.29a5,5,0,0,0,1.2,2.72A4.66,4.66,0,0,0,497,23.56a6.45,6.45,0,0,0,1.25.11,6.22,6.22,0,0,0,4.21-1.57l2.95,4.08a11.54,11.54,0,0,1-7.19,2.45h-.45a9.1,9.1,0,0,1-5.49-1.78,10,10,0,0,1-4.24-8.45v-.49a9.93,9.93,0,0,1,4.24-8.41,9.09,9.09,0,0,1,10.91,0,9.66,9.66,0,0,1,4.23,8.16ZM502.08,16a4.11,4.11,0,0,0-1.48-2.61,4.34,4.34,0,0,0-5.66,0A4.14,4.14,0,0,0,493.47,16Z"/><path d="M511.76,21.54a10.77,10.77,0,0,0,4.76,1.88h1.22a8.84,8.84,0,0,0,2-.24,1.63,1.63,0,0,0,1-.66,1.14,1.14,0,0,0,.21-.7,1,1,0,0,0-.87-1.11h0l-6.87-1.63a4.8,4.8,0,0,1-2.87-1.95,5.78,5.78,0,0,1-1.09-3.43,5.65,5.65,0,0,1,3.44-5.17,12.28,12.28,0,0,1,3.61-.8h1.42a14.51,14.51,0,0,1,8.44,2.61l-2.81,4.12a11,11,0,0,0-5.83-1.64h-1.05a3.52,3.52,0,0,0-1.46.32,1,1,0,0,0,.14,1.81l.49.18,6.43,1.46a5.4,5.4,0,0,1,3.1,2,5.81,5.81,0,0,1,1.2,3.58,5.6,5.6,0,0,1-1.53,3.95,7.18,7.18,0,0,1-4.58,2.16,17.59,17.59,0,0,1-5.42,0A11.86,11.86,0,0,1,509,25.83Z"/></g></g></svg>