<?xml version="1.0" standalone="no"?>
<!DOCTYPE svg PUBLIC "-//W3C//DTD SVG 1.1//EN" "http://www.w3.org/Graphics/SVG/1.1/DTD/svg11.dtd" >
<svg xmlns="http://www.w3.org/2000/svg">
<metadata>Generated by IcoMoon</metadata>
<defs>
<font id="icomoon" horiz-adv-x="1024">
<font-face units-per-em="1024" ascent="960" descent="-64" />
<missing-glyph horiz-adv-x="1024" />
<glyph unicode="&#x20;" horiz-adv-x="512" d="" />
<glyph unicode="&#xe900;" glyph-name="Associations_32x32" d="M916.128 476.896c14.496 25.088 23.424 53.792 23.424 84.8 0 94.176-76.64 170.816-170.848 170.816-23.456 0-45.92-4.896-67.136-14.016-39.104 64.896-110.048 108.544-191.2 108.544-80.512 0-151.008-43.008-190.304-107.104-20.256 8.224-41.632 12.608-63.904 12.608-94.176 0-170.816-76.64-170.816-170.816 0-31.008 8.928-59.712 23.424-84.8-66.4-58.72-106.528-234.528-106.528-318.72 0-8.832 7.168-16 16-16h164c-4.192-29.76-6.368-56.736-6.368-78.528 0-8.832 7.168-16 16-16h637.056c8.832 0 16 7.168 16 16 0 21.824-2.208 48.768-6.368 78.528h168.128c8.832 0 16 7.168 16 16-0.032 84.192-40.16 259.968-106.56 318.688zM768.704 700.544c76.576 0 138.848-62.272 138.848-138.816 0-37.216-14.912-70.88-38.816-95.84-1.504-1.568-3.072-3.072-4.64-4.544-5.344-5.088-10.976-9.92-17.088-14.080-0.96-0.672-1.984-1.184-2.976-1.824-5.728-3.712-11.776-6.944-18.048-9.824-1.888-0.864-3.744-1.76-5.632-2.528-6.976-2.816-14.208-5.088-21.664-6.752-1.696-0.384-3.456-0.64-5.152-0.96-8.096-1.472-16.32-2.496-24.832-2.496-5.792 0-11.488 0.352-17.088 1.056-0.032 0-0.064 0-0.096 0-15.232 27.008-32.128 49.184-50.368 64.512 20.48 33.728 32.48 73.12 32.48 115.36 0 30.592-6.208 59.744-17.376 86.304 16.608 6.816 34.176 10.432 52.448 10.432zM510.368 795.072c105.472 0 191.296-85.792 191.296-191.264 0-41.472-13.408-79.776-35.936-111.136-3.776-5.28-7.808-10.304-12.064-15.104-1.024-1.184-2.112-2.336-3.168-3.488-4.064-4.384-8.288-8.544-12.704-12.512-0.96-0.864-1.888-1.76-2.88-2.624-11.136-9.568-23.232-17.824-36.16-24.576-0.544-0.288-1.088-0.512-1.632-0.768-5.76-2.944-11.712-5.568-17.728-7.936-1.408-0.544-2.848-1.056-4.288-1.568-5.28-1.92-10.656-3.584-16.128-5.024-1.76-0.448-3.52-0.96-5.28-1.376-5.376-1.248-10.816-2.208-16.32-3.008-1.792-0.256-3.52-0.608-5.312-0.8-7.168-0.832-14.432-1.312-21.728-1.312s-14.56 0.512-21.728 1.312c-1.792 0.192-3.52 0.544-5.312 0.8-5.504 0.8-10.944 1.76-16.32 3.008-1.76 0.416-3.52 0.896-5.28 1.376-5.44 1.44-10.848 3.104-16.128 5.024-1.44 0.512-2.88 1.024-4.288 1.568-6.016 2.336-11.904 4.96-17.664 7.904-0.576 0.288-1.152 0.544-1.696 0.832-12.864 6.72-24.928 14.944-36 24.48-1.12 0.96-2.176 1.984-3.296 2.976-4.224 3.776-8.288 7.776-12.16 11.968-1.248 1.344-2.464 2.688-3.68 4.064-3.936 4.48-7.68 9.152-11.2 14.048-22.848 31.52-36.512 70.112-36.512 111.904 0.032 105.44 85.824 191.232 191.296 191.232zM256.16 700.544c17.024 0 33.44-3.040 48.992-8.928-11.584-26.976-18.048-56.64-18.048-87.808 0-42.24 12-81.632 32.48-115.36-18.304-15.392-35.232-37.664-50.528-64.8-4.256-0.384-8.544-0.8-12.896-0.8 0 0-0.032 0-0.032 0-8.48 0-16.704 1.056-24.768 2.496-1.728 0.32-3.488 0.576-5.216 0.96-7.456 1.664-14.656 3.936-21.6 6.72-1.952 0.768-3.808 1.696-5.728 2.56-6.24 2.848-12.256 6.048-17.952 9.76-1.024 0.672-2.080 1.216-3.072 1.888-6.080 4.192-11.712 8.992-17.024 14.080-1.536 1.472-3.104 2.944-4.576 4.512-23.936 24.96-38.848 58.656-38.848 95.872 0 76.576 62.272 138.848 138.816 138.848zM34.72 174.176c4.64 80.672 41.504 227.744 92.064 276.128 2.048-2.368 4.32-4.48 6.464-6.752 1.28-1.344 2.496-2.688 3.84-4 6.624-6.464 13.728-12.288 21.248-17.536 1.696-1.184 3.424-2.336 5.152-3.456 7.712-4.992 15.776-9.44 24.192-13.152 1.792-0.768 3.616-1.44 5.408-2.144 8.928-3.584 18.112-6.56 27.552-8.576 1.184-0.256 2.368-0.352 3.552-0.576 9.248-1.76 18.624-2.816 28.16-3.008-30.176-64.896-52.576-145.952-65.088-216.896h-152.544zM208.224 79.648c0.896 20.992 3.424 45.344 7.456 71.552 1.056 2.144 1.76 4.448 1.76 7.008 0 0.576-0.256 1.056-0.32 1.6 18.304 111.84 62.592 252.512 120.576 302.72 5.088-6.208 10.56-12.096 16.288-17.728 1.056-1.056 2.208-1.984 3.296-3.008 4.608-4.352 9.344-8.544 14.336-12.512 1.664-1.312 3.392-2.528 5.088-3.808 4.608-3.488 9.344-6.784 14.24-9.92 1.824-1.152 3.68-2.272 5.536-3.36 4.992-2.976 10.080-5.728 15.296-8.32 1.856-0.928 3.712-1.824 5.6-2.688 5.408-2.496 10.912-4.704 16.512-6.784 1.824-0.672 3.648-1.376 5.504-2.016 5.728-1.92 11.584-3.552 17.536-5.024 1.856-0.448 3.68-1.024 5.536-1.44 6.080-1.344 12.288-2.336 18.528-3.136 1.76-0.224 3.488-0.608 5.248-0.8 7.936-0.864 15.968-1.376 24.128-1.376s16.192 0.512 24.16 1.376c1.76 0.192 3.488 0.576 5.248 0.8 6.24 0.832 12.448 1.824 18.528 3.136 1.856 0.416 3.68 0.96 5.536 1.408 5.952 1.472 11.808 3.104 17.568 5.024 1.824 0.608 3.616 1.312 5.408 1.984 5.664 2.080 11.232 4.32 16.672 6.848 1.824 0.832 3.616 1.728 5.408 2.592 5.312 2.624 10.496 5.44 15.552 8.48 1.76 1.056 3.52 2.080 5.248 3.2 5.056 3.232 9.952 6.656 14.72 10.24 1.504 1.152 3.072 2.24 4.576 3.424 5.344 4.256 10.464 8.736 15.392 13.44 0.736 0.704 1.504 1.312 2.24 2.048 5.792 5.696 11.328 11.648 16.48 17.92 73.248-63.424 124.768-271.2 129.504-382.848h-604.384zM833.44 174.176c-12.512 70.88-34.848 151.84-64.992 216.704 0.096 0 0.192-0.032 0.288-0.032 10.848 0 21.504 1.216 31.968 3.232 1.152 0.224 2.336 0.32 3.52 0.576 9.472 2.016 18.656 5.024 27.584 8.576 1.792 0.704 3.616 1.376 5.376 2.144 8.416 3.712 16.48 8.128 24.192 13.152 1.76 1.12 3.456 2.272 5.152 3.456 7.52 5.28 14.624 11.104 21.248 17.568 1.312 1.28 2.528 2.656 3.84 3.968 2.176 2.24 4.448 4.384 6.496 6.752 50.56-48.384 87.424-195.424 92.064-276.128h-156.736zM593.056 275.328h-35.648v35.68c0 11.648-9.504 21.152-21.184 21.152h-52.16l-3.456-0.288c-10.144-1.952-17.376-10.848-17.216-20.864v-35.68h-35.68c-11.68 0-21.184-9.504-21.184-21.152v-51.68c0-11.68 9.504-21.184 21.184-21.184h35.68v-35.648c0-11.68 9.472-21.184 21.152-21.184h51.68c11.68 0 21.184 9.504 21.184 21.184v35.648h35.648c11.68 0 21.184 9.504 21.184 21.184v51.68c0 11.648-9.504 21.152-21.184 21.152zM582.24 213.28h-56.864v-56.832h-30.016v56.832h-56.864v30.016h56.864v56.864h30.016v-56.832h56.864v-30.048z" />
<glyph unicode="&#xe901;" glyph-name="Awards_32x32" d="M746.656 889.472h-628.544l0.672-16.64c7.296-184.064 107.168-316.576 158.592-356.64v-60.096c0-124 96.704-225.536 218.624-233.824v-183.712h-193.248v-32h418.464v32h-193.216v183.712c121.92 8.288 218.656 109.856 218.656 233.824v60.128c51.424 40.096 151.328 172.64 158.592 356.64l0.672 16.64h-159.264zM151.68 857.472h125.664v-298.368c-49.216 50.4-115.52 160.96-125.664 298.368zM714.656 456.064c0-111.744-90.912-202.656-202.656-202.656s-202.624 90.912-202.624 202.656v401.408h405.28v-401.408zM746.656 559.104v298.368h125.664c-10.176-137.376-76.48-247.968-125.664-298.368z" />
<glyph unicode="&#xe902;" glyph-name="Chat_32x32" d="M915.2 902.4h-806.4c-32 0-57.6-25.6-57.6-57.6v-576c0-32 25.6-57.6 57.6-57.6h422.4l268.8-233.6 3.2 233.6h112c32 0 57.6 25.6 57.6 57.6v576c0 32-25.6 57.6-57.6 57.6zM940.8 265.6c0-16-12.8-25.6-25.6-25.6h-128c-9.6 0-16-6.4-16-16 0 0 0 0 0 0l-3.2-179.2-220.8 192c0 0-3.2 0-3.2 3.2 0 0 0 0 0 0s-3.2 0-3.2 0c0 0 0 0-3.2 0h-428.8c-16 0-25.6 12.8-25.6 25.6v576c0 16 12.8 25.6 25.6 25.6h806.4c16 0 25.6-12.8 25.6-25.6v-576zM812.8 729.6h-601.6c-9.6 0-16-6.4-16-16s6.4-16 16-16h598.4c9.6 0 16 6.4 16 16s-6.4 16-12.8 16zM812.8 604.8h-601.6c-9.6 0-16-6.4-16-16s6.4-16 16-16h598.4c9.6 0 16 6.4 16 16s-6.4 16-12.8 16zM352 480h-140.8c-9.6 0-16-6.4-16-16s9.6-16 16-16h140.8c9.6 0 16 6.4 16 16s-6.4 16-16 16z" />
<glyph unicode="&#xe903;" glyph-name="Checkmark_32x32" d="M739.2 601.6c-6.4 6.4-16 6.4-22.4 0l-275.2-275.2-134.4 137.6c-6.4 6.4-16 6.4-22.4 0s-6.4-16 0-22.4l144-147.2c3.2-3.2 6.4-6.4 12.8-6.4 0 0 0 0 0 0s0 0 0 0c3.2 0 9.6 0 12.8 3.2l288 288c3.2 6.4 3.2 16-3.2 22.4z" />
<glyph unicode="&#xe904;" glyph-name="Close_32x32" d="M534.4 448l307.2 307.2c6.4 6.4 6.4 16 0 22.4s-16 6.4-22.4 0l-307.2-307.2-307.2 307.2c-6.4 6.4-16 6.4-22.4 0s-6.4-16 0-22.4l307.2-307.2-307.2-307.2c-6.4-6.4-6.4-16 0-22.4 3.2-3.2 6.4-3.2 12.8-3.2s9.6 0 12.8 3.2l307.2 307.2 307.2-307.2c3.2-3.2 6.4-3.2 12.8-3.2s9.6 0 12.8 3.2c6.4 6.4 6.4 16 0 22.4l-313.6 307.2z" />
<glyph unicode="&#xe905;" glyph-name="Collapse_32x32" d="M512 960c-281.6 0-512-230.4-512-512 0-115.2 38.4-224 108.8-316.8 96-124.8 243.2-195.2 400-195.2 281.6 0 512 230.4 512 512s-227.2 512-508.8 512zM512-32c-147.2 0-284.8 67.2-377.6 182.4-64 86.4-102.4 188.8-102.4 297.6 0 262.4 217.6 480 480 480s480-214.4 480-480c0-262.4-217.6-480-480-480zM742.4 464h-460.8c-9.6 0-16-6.4-16-16s6.4-16 16-16h460.8c9.6 0 16 6.4 16 16s-6.4 16-16 16z" />
<glyph unicode="&#xe906;" glyph-name="Doctor_32x32" d="M728.544 506.24c24.032 38.848 38.144 84.48 38.144 133.44 0 140.416-114.24 254.656-254.688 254.656-140.416 0-254.656-114.24-254.656-254.656 0-48.96 14.112-94.56 38.144-133.44-101.888-83.104-166.272-361.472-166.272-488.576 0-8.832 7.168-16 16-16h733.568c8.832 0 16 7.168 16 16 0 127.104-64.384 405.504-166.24 488.576zM512 862.336c122.784 0 222.688-99.904 222.688-222.656 0-48.384-15.68-93.088-41.984-129.632-4.288-5.984-8.864-11.68-13.664-17.152-1.312-1.504-2.688-2.976-4.032-4.448-4.544-4.896-9.312-9.568-14.272-14.048-1.28-1.152-2.528-2.368-3.84-3.488-12.864-11.040-26.88-20.608-41.792-28.416-0.768-0.416-1.6-0.768-2.4-1.152-6.56-3.328-13.312-6.336-20.16-9.024-1.728-0.672-3.488-1.28-5.216-1.92-6.080-2.208-12.256-4.096-18.528-5.76-2.112-0.544-4.224-1.152-6.336-1.632-6.208-1.44-12.48-2.56-18.816-3.456-2.112-0.288-4.16-0.736-6.304-0.96-8.352-0.96-16.768-1.536-25.28-1.536s-16.928 0.576-25.28 1.536c-2.112 0.224-4.128 0.672-6.208 0.96-6.368 0.928-12.704 2.016-18.944 3.488-2.080 0.48-4.16 1.056-6.208 1.6-6.336 1.664-12.576 3.616-18.72 5.824-1.664 0.608-3.36 1.184-5.024 1.824-6.976 2.72-13.856 5.76-20.512 9.184-0.672 0.352-1.376 0.64-2.048 0.992-15.008 7.84-29.056 17.472-41.984 28.576-1.184 1.024-2.336 2.144-3.52 3.2-5.088 4.544-9.952 9.344-14.624 14.4-1.28 1.376-2.56 2.784-3.808 4.192-4.896 5.568-9.568 11.392-13.952 17.504-26.208 36.512-41.824 81.152-41.824 129.408-0.064 122.688 99.808 222.592 222.592 222.592zM519.712 320.992c-45.664 0-82.72 49.664-102.176 82.336 2.112-0.864 4.32-1.568 6.464-2.368s4.288-1.632 6.464-2.368c6.528-2.208 13.184-4.096 19.936-5.792 2.208-0.544 4.352-1.216 6.592-1.696 6.912-1.536 13.952-2.656 21.056-3.616 2.080-0.288 4.16-0.736 6.24-0.96 9.12-0.992 18.336-1.568 27.712-1.568s18.592 0.576 27.712 1.568c2.080 0.224 4.128 0.672 6.208 0.96 7.136 0.96 14.176 2.080 21.12 3.616 2.208 0.48 4.352 1.12 6.528 1.664 6.784 1.696 13.472 3.584 20.032 5.792 2.144 0.736 4.256 1.568 6.368 2.336 3.616 1.344 7.328 2.496 10.848 3.968-14.72-31.968-45.6-83.872-91.104-83.872zM520.8 184.48c14.208 0 25.792-11.552 25.824-25.792 0-14.208-11.584-25.824-25.824-25.824s-25.792 11.584-25.792 25.824 11.584 25.792 25.792 25.792zM161.536 33.664c4.832 129.248 65.6 374.592 151.968 446.72 0.192-0.224 0.416-0.448 0.608-0.672 11.52-14.208 24.544-27.136 38.784-38.592 1.536-1.216 3.136-2.336 4.704-3.52 4.832-3.712 9.728-7.36 14.816-10.72-0.384-2.816-0.288-5.696 0.928-8.48 2.208-4.992 52.16-116.672 132.672-128.416v-70.912c0-1.536 0.224-3.008 0.64-4.416-25.024-6.336-43.584-29.024-43.584-56 0-31.872 25.92-57.824 57.792-57.824s57.824 25.952 57.824 57.856c-0.032 26.144-17.536 48.288-41.408 55.36 0.512 1.568 0.768 3.264 0.768 4.992v71.68c76.992 15.36 111.776 124.352 113.344 129.312 0.736 2.336 0.768 4.672 0.48 6.912 5.024 3.328 9.824 6.944 14.624 10.592 1.568 1.184 3.168 2.304 4.704 3.52 14.272 11.456 27.264 24.352 38.784 38.56 0.192 0.256 0.416 0.448 0.64 0.704 86.368-72.096 147.104-317.44 151.936-446.72h-701.024z" />
<glyph unicode="&#xe907;" glyph-name="Dropdown_2_32x32" d="M213.184 293.376c6.24-6.24 16.384-6.24 22.624 0l276.192 276.192 276.16-276.16c6.24-6.24 16.384-6.24 22.624 0s6.24 16.384 0 22.624l-286.624 286.624c-3.136 3.136-7.232 4.672-11.328 4.672-0.288 0-0.576-0.16-0.864-0.16s-0.576 0.16-0.864 0.16c-4.096 0-8.192-1.568-11.328-4.672l-286.624-286.624c-6.208-6.272-6.208-16.384 0.032-22.656z" />
<glyph unicode="&#xe908;" glyph-name="Dropdown_32x32" d="M810.816 602.624c-6.24 6.24-16.384 6.24-22.624 0l-276.192-276.192-276.16 276.16c-6.24 6.24-16.384 6.24-22.624 0s-6.24-16.384 0-22.624l286.624-286.624c3.136-3.136 7.232-4.672 11.328-4.672 0.288 0 0.576 0.16 0.864 0.16s0.576-0.16 0.864-0.16c4.096 0 8.192 1.568 11.328 4.672l286.624 286.624c6.208 6.272 6.208 16.384-0.032 22.656z" />
<glyph unicode="&#xe909;" glyph-name="Expand_32x32" d="M512 960c-281.6 0-512-230.4-512-512 0-115.2 38.4-224 108.8-316.8 96-124.8 243.2-195.2 400-195.2 281.6 0 512 230.4 512 512s-227.2 512-508.8 512zM512-32c-147.2 0-284.8 67.2-377.6 182.4-64 86.4-102.4 188.8-102.4 297.6 0 262.4 217.6 480 480 480s480-214.4 480-480c0-262.4-217.6-480-480-480zM742.4 464h-214.4v214.4c0 9.6-6.4 16-16 16s-16-6.4-16-16v-214.4h-214.4c-9.6 0-16-6.4-16-16s6.4-16 16-16h214.4v-214.4c0-9.6 6.4-16 16-16s16 6.4 16 16v214.4h214.4c9.6 0 16 6.4 16 16s-6.4 16-16 16z" />
<glyph unicode="&#xe90a;" glyph-name="Filter_32x32" d="M227.2 960c-3.2 0-9.6-3.2-9.6-3.2-3.2-3.2-6.4-6.4-6.4-12.8v-467.2h-76.8c-16 0-25.6-12.8-25.6-25.6s12.8-25.6 25.6-25.6h76.8v-470.4c0-9.6 6.4-16 16-16s16 6.4 16 16v470.4h76.8c16 0 25.6 12.8 25.6 25.6s-12.8 25.6-25.6 25.6h-76.8v467.2c0 6.4-3.2 9.6-6.4 12.8 0 3.2-3.2 3.2-9.6 3.2zM512 960c-3.2 0-9.6-3.2-9.6-3.2-3.2-3.2-6.4-6.4-6.4-12.8v-739.2h-76.8c-16 0-25.6-12.8-25.6-25.6s12.8-25.6 25.6-25.6h76.8v-201.6c0-9.6 6.4-16 16-16s16 6.4 16 16v201.6h76.8c16 0 25.6 12.8 25.6 25.6s-12.8 25.6-25.6 25.6h-76.8v739.2c0 6.4-3.2 9.6-6.4 12.8s-6.4 3.2-9.6 3.2zM793.6 960c-3.2 0-9.6-3.2-9.6-3.2-3.2-3.2-6.4-6.4-6.4-12.8v-198.4h-76.8c-16 0-25.6-12.8-25.6-25.6s12.8-25.6 25.6-25.6h76.8v-739.2c0-9.6 6.4-16 16-16s16 6.4 16 16v739.2h76.8c16 0 25.6 12.8 25.6 25.6s-12.8 25.6-25.6 25.6h-76.8v198.4c0 6.4-3.2 9.6-6.4 12.8 0 3.2-3.2 3.2-9.6 3.2z" />
<glyph unicode="&#xe90b;" glyph-name="Hamburger_Menu_32x32" d="M64 742.4h896c9.6 0 16 6.4 16 16s-6.4 16-16 16h-896c-9.6 0-16-6.4-16-16s6.4-16 16-16zM960 438.4h-896c-9.6 0-16-6.4-16-16s6.4-16 16-16h896c9.6 0 16 6.4 16 16 0 6.4-6.4 16-16 16zM960 102.4h-896c-9.6 0-16-6.4-16-16s6.4-16 16-16h896c9.6 0 16 6.4 16 16s-6.4 16-16 16z" />
<glyph unicode="&#xe90c;" glyph-name="Left_Arrow_Small_32x32" d="M666.624 149.184c6.24 6.24 6.24 16.384 0 22.624l-276.192 276.192 276.16 276.16c6.24 6.24 6.24 16.384 0 22.624s-16.384 6.24-22.624 0l-286.624-286.624c-3.136-3.136-4.672-7.232-4.672-11.328 0-0.288 0.16-0.576 0.16-0.864s-0.16-0.576-0.16-0.864c0-4.096 1.568-8.192 4.672-11.328l286.624-286.624c6.272-6.208 16.384-6.208 22.656 0.032z" />
<glyph unicode="&#xe90d;" glyph-name="Map_Pin_2_32x32" d="M512 960c-176 0-320-144-320-320 0-51.2 12.8-99.2 32-140.8 19.2-38.4 268.8-528 288-563.2 3.2 6.4 6.4 12.8 9.6 22.4 25.6 54.4 275.2 534.4 291.2 579.2 12.8 35.2 19.2 70.4 19.2 105.6 0 172.8-144 316.8-320 316.8z" />
<glyph unicode="&#xe90e;" glyph-name="Map_Pin_32x32" d="M512 960c-176 0-320-144-320-320 0-51.2 12.8-99.2 32-140.8 19.2-38.4 268.8-528 288-563.2 3.2 6.4 6.4 12.8 9.6 22.4 25.6 54.4 275.2 534.4 291.2 579.2 12.8 35.2 19.2 70.4 19.2 105.6 0 172.8-144 316.8-320 316.8zM512 502.4c-76.8 0-140.8 64-140.8 140.8s64 140.8 140.8 140.8 140.8-64 140.8-140.8-64-140.8-140.8-140.8z" />
<glyph unicode="&#xe90f;" glyph-name="Provider_32x32" d="M790.4 745.6h-115.2c-6.4 0-12.8-6.4-12.8-12.8s6.4-12.8 12.8-12.8h102.4c-6.4-150.4-102.4-268.8-224-268.8-118.4 0-217.6 121.6-224 268.8h102.4c6.4 0 12.8 6.4 12.8 12.8s-6.4 12.8-12.8 12.8h-115.2c-6.4 0-12.8-6.4-12.8-12.8 0-166.4 102.4-300.8 236.8-310.4v-176c0-35.2-12.8-67.2-38.4-92.8s-57.6-38.4-92.8-38.4c0 0 0 0 0 0-67.2 0-124.8 51.2-131.2 121.6 16 3.2 32 12.8 41.6 25.6 9.6 16 16 32 12.8 51.2-6.4 38.4-41.6 64-80 57.6s-64-41.6-57.6-80c3.2-28.8 25.6-51.2 54.4-57.6 6.4-83.2 73.6-147.2 156.8-147.2 3.2 0 6.4 0 9.6 0 83.2 3.2 150.4 73.6 150.4 156.8v176c134.4 9.6 236.8 144 236.8 310.4 3.2 9.6-3.2 16-12.8 16zM224 304c0 22.4 19.2 41.6 41.6 41.6s41.6-19.2 41.6-41.6-19.2-41.6-41.6-41.6c-22.4 0-41.6 19.2-41.6 41.6zM512 960c-281.6 0-512-230.4-512-512 0-115.2 38.4-224 108.8-316.8 96-124.8 243.2-195.2 400-195.2 281.6 0 512 230.4 512 512s-227.2 512-508.8 512zM512-32c-147.2 0-284.8 67.2-377.6 182.4-64 86.4-102.4 188.8-102.4 297.6 0 262.4 217.6 480 480 480s480-214.4 480-480c0-262.4-217.6-480-480-480z" />
<glyph unicode="&#xe910;" glyph-name="Read_More_2_32x32" d="M626.464 459.968l-206.336 206.336c-6.24 6.24-16.384 6.24-22.624 0s-6.24-16.384 0-22.624l195.68-195.68-195.648-195.648c-6.24-6.24-6.24-16.384 0-22.624 3.136-3.136 7.232-4.672 11.328-4.672s8.192 1.568 11.328 4.672l206.336 206.336c3.296 3.296 4.736 7.648 4.576 11.968 0.096 4.288-1.344 8.64-4.64 11.936z" />
<glyph unicode="&#xe911;" glyph-name="Read_More_32x32" d="M626.464 459.968l-206.336 206.336c-6.24 6.24-16.384 6.24-22.624 0s-6.24-16.384 0-22.624l195.68-195.68-195.648-195.648c-6.24-6.24-6.24-16.384 0-22.624 3.136-3.136 7.232-4.672 11.328-4.672s8.192 1.568 11.328 4.672l206.336 206.336c3.296 3.296 4.736 7.648 4.576 11.968 0.096 4.288-1.344 8.64-4.64 11.936zM512 958.4c-281.44 0-510.4-228.96-510.4-510.4 0-115.744 37.76-224.864 109.248-315.584 97.536-123.808 243.744-194.816 401.152-194.816 281.44 0 510.4 228.96 510.4 510.4s-228.96 510.4-510.4 510.4zM512-30.4c-147.552 0-284.608 66.56-376.032 182.624-66.976 84.992-102.368 187.264-102.368 295.776 0 263.808 214.592 478.4 478.4 478.4 263.776 0 478.4-214.624 478.4-478.4s-214.624-478.4-478.4-478.4z" />
<glyph unicode="&#xe912;" glyph-name="Right_Arrow_Small_32x32" d="M666.688 460.192l-286.624 286.624c-6.24 6.24-16.384 6.24-22.624 0s-6.24-16.384 0-22.624l276.16-276.16-276.16-276.192c-6.24-6.24-6.24-16.384 0-22.624 3.136-3.136 7.232-4.672 11.328-4.672s8.192 1.568 11.328 4.672l286.624 286.624c3.36 3.36 4.768 7.808 4.512 12.192 0.224 4.352-1.184 8.8-4.544 12.16z" />
<glyph unicode="&#xe913;" glyph-name="Search_32x32" d="M960.992 17.408l-264.832 281.76c-2.784 2.944-6.432 4.448-10.176 4.8 57.856 63.936 93.44 148.416 93.44 241.248 0 198.72-161.664 360.384-360.384 360.384s-360.384-161.664-360.384-360.384c0-198.688 161.664-360.352 360.384-360.352 97.024 0 185.024 38.72 249.888 101.28 0.416-3.2 1.536-6.368 3.936-8.896l264.832-281.76c3.168-3.328 7.392-5.024 11.648-5.024 3.936 0 7.872 1.44 10.976 4.352 6.432 6.016 6.752 16.16 0.672 22.592zM419.040 216.832c-181.056 0-328.384 147.328-328.384 328.352 0 181.056 147.328 328.384 328.384 328.384s328.384-147.328 328.384-328.384c-0.032-181.024-147.328-328.352-328.384-328.352z" />
</font>
</defs>
</svg>
