<svg id="Layer_1" data-name="Layer 1" xmlns="http://www.w3.org/2000/svg" viewBox="0 0 9.96 18.97"><defs><style>.cls-1{fill:#231f20;}</style></defs><title>icon-chevron-right</title><path class="cls-1" d="M518.81,153a.49.49,0,0,1-.35-.15l-9-8.95a.5.5,0,0,1,.71-.71l9,9a.5.5,0,0,1,0,.7A.51.51,0,0,1,518.81,153Z" transform="translate(-509.36 -143)"/><path class="cls-1" d="M509.86,162a.54.54,0,0,1-.36-.14.51.51,0,0,1,0-.71l9-9a.5.5,0,1,1,.71.71l-9,9A.54.54,0,0,1,509.86,162Z" transform="translate(-509.36 -143)"/></svg>