<svg id="Layer_1" data-name="Layer 1" xmlns="http://www.w3.org/2000/svg" viewBox="0 0 28.33 28.6"><defs><style>.cls-1{fill:#231f20;}</style></defs><title>icon-search</title><path class="cls-1" d="M288.54,165.4a.53.53,0,0,1-.37-.15l-8.27-8.81a.5.5,0,0,1,0-.71.51.51,0,0,1,.71,0l8.27,8.8a.5.5,0,0,1,0,.71A.48.48,0,0,1,288.54,165.4Z" transform="translate(-260.71 -136.81)"/><path class="cls-1" d="M272,159.33a11.26,11.26,0,1,1,11.26-11.26A11.27,11.27,0,0,1,272,159.33Zm0-21.52a10.26,10.26,0,1,0,10.26,10.26A10.27,10.27,0,0,0,272,137.81Z" transform="translate(-260.71 -136.81)"/></svg>