<svg id="Layer_1" data-name="Layer 1" xmlns="http://www.w3.org/2000/svg" viewBox="0 0 28.89 29.05"><defs><style>.cls-1{fill:#231f20;}</style></defs><title>icon-chat</title><path class="cls-1" d="M244.57,158.33h-4a.5.5,0,0,1-.5-.5.5.5,0,0,1,.5-.5h4a.85.85,0,0,0,.84-.85v-18a.85.85,0,0,0-.84-.84h-25.2a.85.85,0,0,0-.85.84v18a.85.85,0,0,0,.85.85h13.39a.5.5,0,0,1,.5.5.51.51,0,0,1-.5.5H219.37a1.85,1.85,0,0,1-1.85-1.85v-18a1.85,1.85,0,0,1,1.85-1.84h25.2a1.84,1.84,0,0,1,1.84,1.84v18A1.84,1.84,0,0,1,244.57,158.33Z" transform="translate(-217.52 -136.6)"/><path class="cls-1" d="M240.94,165.65l-8.5-7.45a.49.49,0,0,1-.05-.7.51.51,0,0,1,.71-.05l6.86,6,.08-5.65a.48.48,0,0,1,.5-.49.5.5,0,0,1,.5.5Z" transform="translate(-217.52 -136.6)"/><path class="cls-1" d="M241.33,143H222.6a.51.51,0,0,1-.5-.5.5.5,0,0,1,.5-.5h18.73a.5.5,0,0,1,.5.5A.5.5,0,0,1,241.33,143Z" transform="translate(-217.52 -136.6)"/><path class="cls-1" d="M241.33,146.89H222.6a.51.51,0,0,1-.5-.5.5.5,0,0,1,.5-.5h18.73a.5.5,0,0,1,.5.5A.5.5,0,0,1,241.33,146.89Z" transform="translate(-217.52 -136.6)"/><path class="cls-1" d="M227,150.79h-4.4a.51.51,0,0,1-.5-.5.5.5,0,0,1,.5-.5H227a.5.5,0,0,1,.5.5A.5.5,0,0,1,227,150.79Z" transform="translate(-217.52 -136.6)"/></svg>