<svg id="Layer_1" data-name="Layer 1" xmlns="http://www.w3.org/2000/svg" viewBox="0 0 23.92 27.9"><title>icon-doctor</title><path d="M537.45,164.81a.5.5,0,0,1-.35-.14.49.49,0,0,1-.15-.36c0-4.13,2.18-13.42,5.6-15.57a.48.48,0,0,1,.67.13,6.95,6.95,0,0,0,11.38,0,.5.5,0,0,1,.68-.13c3.42,2.15,5.59,11.44,5.59,15.57a.5.5,0,0,1-.5.5Zm5.26-15c-2.7,2.26-4.6,9.92-4.75,14h21.9c-.15-4-2-11.7-4.74-14a8,8,0,0,1-12.41,0Z" transform="translate(-536.95 -136.92)"/><path d="M549.19,161.71a1.81,1.81,0,0,1-.45-3.56.59.59,0,0,1,0-.13V155.8c-2.51-.36-4.07-3.85-4.14-4a.5.5,0,0,1,.92-.4s1.54,3.44,3.65,3.44,3.15-3.36,3.16-3.39a.5.5,0,0,1,1,.3c0,.15-1.14,3.56-3.55,4V158a.39.39,0,0,1,0,.15,1.81,1.81,0,0,1-.51,3.54Zm0-2.61a.81.81,0,1,0,.8.81A.81.81,0,0,0,549.19,159.1Z" transform="translate(-536.95 -136.92)"/><path d="M548.91,152.83a8,8,0,1,1,8-8A8,8,0,0,1,548.91,152.83Zm0-14.91a7,7,0,1,0,7,7A7,7,0,0,0,548.91,137.92Z" transform="translate(-536.95 -136.92)"/></svg>