<svg id="Layer_1" data-name="Layer 1" xmlns="http://www.w3.org/2000/svg" viewBox="0 0 18.97 9.96"><defs><style>.cls-1{fill:#231f20;}</style></defs><title>icon-chevron-up</title><path class="cls-1" d="M514.31,147.51a.5.5,0,0,1,.35.15.48.48,0,0,1,0,.7l-9,9a.48.48,0,0,1-.7,0,.5.5,0,0,1,0-.71l9-9A.51.51,0,0,1,514.31,147.51Z" transform="translate(-504.85 -147.51)"/><path class="cls-1" d="M514.36,147.51a.47.47,0,0,1,.35.15l9,9a.5.5,0,1,1-.71.71l-9-9a.5.5,0,0,1,.35-.85Z" transform="translate(-504.85 -147.51)"/></svg>