<svg id="Layer_1" data-name="Layer 1" xmlns="http://www.w3.org/2000/svg" viewBox="0 0 36.57 27.9"><title>icon-group</title><path d="M768.1,164.66a.47.47,0,0,1-.35-.15.51.51,0,0,1-.15-.35c0-4.14,2.18-13.42,5.6-15.58a.51.51,0,0,1,.68.14,6.95,6.95,0,0,0,11.38,0,.49.49,0,0,1,.67-.14c3.42,2.16,5.6,11.44,5.6,15.58a.51.51,0,0,1-.5.5Zm5.26-15c-2.7,2.25-4.59,9.92-4.75,14h21.91c-.15-4-2-11.71-4.75-14a8,8,0,0,1-12.41,0Z" transform="translate(-761.36 -136.76)"/><path d="M779.57,152.68a8,8,0,1,1,7.95-8A8,8,0,0,1,779.57,152.68Zm0-14.92a7,7,0,1,0,6.95,7A7,7,0,0,0,779.57,137.76Z" transform="translate(-761.36 -136.76)"/><path d="M761.86,161.26a.53.53,0,0,1-.36-.15.5.5,0,0,1-.14-.35c0-3.2,1.6-10.09,4.23-11.75a.5.5,0,0,1,.68.14,5.08,5.08,0,0,0,4.15,2.16.5.5,0,0,1,.5.5.51.51,0,0,1-.5.5,6.11,6.11,0,0,1-4.65-2.17c-1.88,1.71-3.25,7.19-3.4,10.12h6.08a.5.5,0,0,1,.5.5.5.5,0,0,1-.5.5Z" transform="translate(-761.36 -136.76)"/><path d="M770.42,152.31a6.08,6.08,0,0,1,0-12.15,6,6,0,0,1,2.76.67.49.49,0,0,1,.21.67.5.5,0,0,1-.67.22,5,5,0,0,0-2.3-.56,5.08,5.08,0,0,0,0,10.15,4.21,4.21,0,0,0,.62,0,.5.5,0,1,1,.12,1A6,6,0,0,1,770.42,152.31Z" transform="translate(-761.36 -136.76)"/><path d="M797.42,161.26h-6.59a.51.51,0,0,1-.5-.5.5.5,0,0,1,.5-.5h6.08c-.15-2.93-1.52-8.41-3.4-10.12a6.11,6.11,0,0,1-4.65,2.17.51.51,0,0,1-.5-.5.5.5,0,0,1,.5-.5,5.08,5.08,0,0,0,4.15-2.16.5.5,0,0,1,.68-.14c2.63,1.66,4.23,8.55,4.23,11.75a.5.5,0,0,1-.14.35A.53.53,0,0,1,797.42,161.26Z" transform="translate(-761.36 -136.76)"/><path d="M788.86,152.31a6,6,0,0,1-.74-.05.5.5,0,0,1-.44-.55.52.52,0,0,1,.56-.44,4.21,4.21,0,0,0,.62,0,5.08,5.08,0,0,0,0-10.15,5,5,0,0,0-2.3.56.5.5,0,0,1-.46-.89,6,6,0,0,1,2.76-.67,6.08,6.08,0,0,1,0,12.15Z" transform="translate(-761.36 -136.76)"/><path d="M780.5,161.9h-1.86a.69.69,0,0,1-.69-.69v-1.36h-1.36a.69.69,0,0,1-.69-.69V157.3a.69.69,0,0,1,.69-.68H778v-1.36a.68.68,0,0,1,.56-.68h2a.69.69,0,0,1,.68.69v1.36h1.36a.69.69,0,0,1,.69.68v1.86a.69.69,0,0,1-.69.69h-1.36v1.36A.69.69,0,0,1,780.5,161.9Zm-1.55-1h1.23v-2.05h2.05v-1.23h-2.05v-2.05H779v2.05H776.9v1.23H779Zm0-5.65h0Z" transform="translate(-761.36 -136.76)"/></svg>