<svg id="Layer_1" data-name="Layer 1" xmlns="http://www.w3.org/2000/svg" viewBox="0 0 34.77 27.44"><title>icon-pills</title><path d="M546.67,154.35A10.14,10.14,0,0,1,529,161.13l.81-.81a8.95,8.95,0,0,0,12.64.75l-6.67-6.66.81-.81,6.73,6.72a8.93,8.93,0,0,0,2.26-5.91,9,9,0,0,0-5-8.06c0-.23.06-.52.06-.75v-.52A10.15,10.15,0,0,1,546.67,154.35Zm-9.8-2.72L526.5,162a8.53,8.53,0,0,1-12,0,8.46,8.46,0,0,1-.06-12.05l10.37-10.37a8.54,8.54,0,1,1,12.11,12Zm-6.37,4.75-.81-.81-2.15-2.09-1-1-5.68-5.68L520,146l-4.81,4.81a7.38,7.38,0,0,0,10.43,10.43Zm5.56-5.56a7.4,7.4,0,0,0-10.43-10.49l-4.81,4.81.81.81,5.22,5.21.93.93,2.66,2.67.81.81Z" transform="translate(-511.9 -137.05)"/></svg>