<svg id="Isolation_Mode" data-name="Isolation Mode" xmlns="http://www.w3.org/2000/svg" viewBox="0 0 30.07 27.19"><title>icon-home</title><path d="M314.74,137.39l13.9,12.53h-2.38v12.26a1,1,0,0,1-1.12,1.12H304.33a1,1,0,0,1-1.11-1.12V149.92h-2.38l13.9-12.53m0-.48-14.87,13.38h3v11.89a1.41,1.41,0,0,0,1.49,1.49h20.81a1.41,1.41,0,0,0,1.49-1.49V150.29h3l-14.86-13.38Z" transform="translate(-299.7 -136.72)"/><path d="M325.14,163.92H304.33a1.67,1.67,0,0,1-1.74-1.74V150.54h-2.72l-.17-.44,14.87-13.38h.33l14.87,13.38-.17.44h-2.72v11.64A1.67,1.67,0,0,1,325.14,163.92Zm-23.65-14.25h1.73l.25.25v12.26a.77.77,0,0,0,.86.87h20.81a.78.78,0,0,0,.87-.87V149.92l.25-.25H328l-13.24-11.94Zm27.19.37H329l-.2-.18Zm-28.16,0h.27l-.07-.18Z" transform="translate(-299.7 -136.72)"/></svg>