<svg id="Layer_1" data-name="Layer 1" xmlns="http://www.w3.org/2000/svg" viewBox="0 0 30.07 27.19"><title>icon-clinic</title><path d="M451.16,137.39l13.9,12.53h-2.38v12.26a1,1,0,0,1-1.11,1.12H440.76a1,1,0,0,1-1.12-1.12V149.92h-2.38l13.9-12.53m0-.48L436.3,150.29h3v11.89a1.41,1.41,0,0,0,1.49,1.49h20.81a1.41,1.41,0,0,0,1.49-1.49V150.29h3l-14.87-13.38Z" transform="translate(-436.13 -136.72)"/><path d="M461.57,163.92H440.76a1.67,1.67,0,0,1-1.74-1.74V150.54H436.3l-.17-.44L451,136.72h.33L466.2,150.1l-.17.44h-2.72v11.64A1.67,1.67,0,0,1,461.57,163.92Zm-23.65-14.25h1.72l.25.25v12.26a.78.78,0,0,0,.87.87h20.81a.77.77,0,0,0,.86-.87V149.92l.25-.25h1.73l-13.25-11.94Zm27.19.37h.27l-.2-.18ZM437,150h.26l-.06-.18Z" transform="translate(-436.13 -136.72)"/><path d="M452.33,156.89H450a.58.58,0,0,1-.58-.58v-2h-2a.59.59,0,0,1-.59-.59v-2.34a.58.58,0,0,1,.59-.58h2v-2a.57.57,0,0,1,.47-.57h2.45a.58.58,0,0,1,.59.58v2h2a.58.58,0,0,1,.58.58v2.34a.59.59,0,0,1-.58.59h-2v2A.58.58,0,0,1,452.33,156.89Zm-2.22-.7h2.11v-2.57h2.57v-2.11h-2.57v-2.58h-2.11v2.58h-2.58v2.11h2.58Zm0-7.38Z" transform="translate(-436.13 -136.72)"/></svg>