<svg id="Layer_1" data-name="Layer 1" xmlns="http://www.w3.org/2000/svg" viewBox="0 0 26.12 27.86"><title>icon-funnel</title><path d="M620.49,151.9v9.67a.38.38,0,0,0,.2.33l5,3.18c.08,0,.12.08.2.08a.41.41,0,0,0,.21,0,.44.44,0,0,0,.2-.37V151.9l10-13.22a.91.91,0,0,0,0-.93.87.87,0,0,0-.81-.45H611.27a.93.93,0,0,0-.82.45.87.87,0,0,0,0,.93Zm-9.3-13.75s0,0,.08,0h24.31a.14.14,0,0,1,.08,0s0,0,0,.09l-10,13.29a.69.69,0,0,0-.09.25V164l-4.2-2.62v-9.58a.66.66,0,0,0-.08-.25l-10.07-13.25Z" transform="translate(-610.33 -137.3)"/></svg>