<svg id="Layer_1" data-name="Layer 1" xmlns="http://www.w3.org/2000/svg" viewBox="0 0 32.42 32.42"><defs><style>.cls-1{fill:none;}.cls-2{fill:#231f20;}</style></defs><title>icon-account</title><path class="cls-1" d="M186.83,159.88c0-5.54-2.75-8.25-5.09-8.83-.9-.22-4.42,2.76-6,2.76-1.94,0-6.42-2.79-6.89-2.43-2.73,2.1-5.08,3.36-5.08,8.54l8.63,4.5,8.37-.63Z" transform="translate(-159.05 -132.5)"/><path class="cls-2" d="M175.26,164.92a16.21,16.21,0,1,1,16.21-16.21A16.09,16.09,0,0,1,175.26,164.92Zm0-31.42a15.22,15.22,0,0,0-15.21,15.21,15.21,15.21,0,0,0,15.21,15.21,15.21,15.21,0,1,0,0-30.42Z" transform="translate(-159.05 -132.5)"/><path class="cls-2" d="M175.26,154.16a8.07,8.07,0,1,1,8.07-8.07A8.08,8.08,0,0,1,175.26,154.16Zm0-15.14a7.07,7.07,0,1,0,7.07,7.07A7.08,7.08,0,0,0,175.26,139Z" transform="translate(-159.05 -132.5)"/><path class="cls-2" d="M163.22,159.32h-.11a.5.5,0,0,1-.38-.6,12.56,12.56,0,0,1,2.2-4.78,12.93,12.93,0,0,1,4.13-3.62.48.48,0,0,1,.67.19.49.49,0,0,1-.19.68,12.09,12.09,0,0,0-3.81,3.34,11.87,11.87,0,0,0-2,4.42A.49.49,0,0,1,163.22,159.32Z" transform="translate(-159.05 -132.5)"/><path class="cls-2" d="M187.26,159.15a.5.5,0,0,1-.48-.38,11.94,11.94,0,0,0-5.66-7.51.5.5,0,0,1,.49-.87,12.93,12.93,0,0,1,6.14,8.14.5.5,0,0,1-.37.6Z" transform="translate(-159.05 -132.5)"/></svg>