<svg id="Layer_1" data-name="Layer 1" xmlns="http://www.w3.org/2000/svg" viewBox="0 0 14.15 7.56"><defs><style>.cls-1{fill:#231f20;}</style></defs><title>icon-chevron-up-small</title><path class="cls-1" d="M574.28,147.43a.5.5,0,0,1-.14.36l-6.56,6.55a.5.5,0,0,1-.71,0,.5.5,0,0,1,0-.7l6.56-6.56a.5.5,0,0,1,.71,0A.47.47,0,0,1,574.28,147.43Z" transform="translate(-566.73 -146.93)"/><path class="cls-1" d="M580.88,154a.5.5,0,0,1-.85.35l-6.56-6.55a.51.51,0,0,1,0-.71.5.5,0,0,1,.71,0l6.56,6.56A.5.5,0,0,1,580.88,154Z" transform="translate(-566.73 -146.93)"/></svg>