<svg id="Layer_1" data-name="Layer 1" xmlns="http://www.w3.org/2000/svg" viewBox="0 0 20.93 20.93"><defs><style>.cls-1{fill:#231f20;}</style></defs><title>icon-close</title><path class="cls-1" d="M484.92,161.17a.52.52,0,0,1-.35-.14L464.64,141.1a.5.5,0,0,1,.71-.71l19.93,19.93a.51.51,0,0,1,0,.71A.54.54,0,0,1,484.92,161.17Z" transform="translate(-464.5 -140.25)"/><path class="cls-1" d="M465,161.17a.54.54,0,0,1-.36-.14.51.51,0,0,1,0-.71l19.93-19.93a.5.5,0,0,1,.71.71L465.35,161A.54.54,0,0,1,465,161.17Z" transform="translate(-464.5 -140.25)"/></svg>