<svg id="Layer_1" data-name="Layer 1" xmlns="http://www.w3.org/2000/svg" viewBox="0 0 32.42 32.42"><defs><style>.cls-1{fill:#231f20;}</style></defs><title>icon-stethoscope</title><path d="M362.09,141.68a.32.32,0,0,0-.33-.32h-3.69a.32.32,0,0,0-.33.32.33.33,0,0,0,.33.33h3.36c-.14,4.88-3.32,8.79-7.2,8.79s-7.08-3.93-7.21-8.79h3.36a.33.33,0,0,0,.33-.33.32.32,0,0,0-.33-.32h-3.73a.32.32,0,0,0-.33.32c0,5.24,3.36,9.54,7.55,9.75v5.67a4.24,4.24,0,0,1-8.47.26h0a2.09,2.09,0,1,0-.65,0,4.89,4.89,0,0,0,9.77-.27v-5.66C358.74,151.22,362.09,146.93,362.09,141.68Zm-18.44,13.61a1.45,1.45,0,1,1,1.45,1.44h0A1.45,1.45,0,0,1,343.65,155.29Z" transform="translate(-336.67 -134.5)"/><path class="cls-1" d="M349.63,162.09a5,5,0,0,1-5-4.65A2.19,2.19,0,0,1,343.3,154a2.16,2.16,0,0,1,1.43-.88,2.19,2.19,0,0,1,.78,4.31,4.13,4.13,0,0,0,4.12,3.82h0a4.15,4.15,0,0,0,4.12-4.16v-5.57c-4.24-.28-7.55-4.58-7.55-9.85a.43.43,0,0,1,.43-.42h3.73a.43.43,0,1,1,0,.85h-3.25c.17,4.74,3.34,8.59,7.1,8.59s6.92-3.77,7.09-8.59h-3.25a.43.43,0,1,1,0-.85h3.69a.42.42,0,0,1,.43.42c0,5.27-3.32,9.57-7.57,9.85v5.56a5,5,0,0,1-4.73,5Zm-4.55-8.79a1.73,1.73,0,0,0-.32,0,2,2,0,0,0,0,3.93h.08v.08a4.79,4.79,0,0,0,4.78,4.54h.25a4.79,4.79,0,0,0,4.54-4.8v-5.75h.09c4.2-.21,7.48-4.45,7.48-9.65a.22.22,0,0,0-.23-.22h-3.69a.23.23,0,1,0,0,.45h3.46v.1c-.14,5-3.35,8.89-7.3,8.89s-7.17-4-7.31-8.89v-.1h3.46a.23.23,0,1,0,0-.45h-3.73a.23.23,0,0,0-.23.22c0,5.2,3.27,9.44,7.45,9.65H354v5.76a4.33,4.33,0,0,1-4.31,4.36h0a4.34,4.34,0,0,1-4.33-4.1v-.09h.08A2,2,0,0,0,347,155a2,2,0,0,0-2-1.68Zm0,3.53a1.56,1.56,0,0,1-1.55-1.54h0a1.55,1.55,0,1,1,1.55,1.54Zm-1.35-1.54a1.35,1.35,0,1,0,1.35-1.35,1.36,1.36,0,0,0-1.35,1.35Z" transform="translate(-336.67 -134.5)"/><path class="cls-1" d="M352.88,166.92a16.21,16.21,0,1,1,16.21-16.21A16.09,16.09,0,0,1,352.88,166.92Zm0-31.42a15.22,15.22,0,0,0-15.21,15.21,15.21,15.21,0,0,0,15.21,15.21,15.21,15.21,0,0,0,0-30.42Z" transform="translate(-336.67 -134.5)"/></svg>