<svg id="Layer_1" data-name="Layer 1" xmlns="http://www.w3.org/2000/svg" viewBox="0 0 14.15 7.56"><defs><style>.cls-1{fill:#231f20;}</style></defs><title>icon-chevron-down-small</title><path class="cls-1" d="M573.33,154a.46.46,0,0,1,.14-.35l6.56-6.56a.5.5,0,0,1,.71,0,.51.51,0,0,1,0,.71l-6.56,6.55a.5.5,0,0,1-.71,0A.46.46,0,0,1,573.33,154Z" transform="translate(-566.73 -146.93)"/><path class="cls-1" d="M566.73,147.43a.52.52,0,0,1,.14-.35.5.5,0,0,1,.71,0l6.56,6.56a.5.5,0,0,1,0,.7.5.5,0,0,1-.71,0l-6.56-6.55A.54.54,0,0,1,566.73,147.43Z" transform="translate(-566.73 -146.93)"/></svg>