<svg id="Layer_1" data-name="Layer 1" xmlns="http://www.w3.org/2000/svg" viewBox="0 0 9.96 18.97"><defs><style>.cls-1{fill:#231f20;}</style></defs><title>icon-chevron-left</title><path class="cls-1" d="M509.36,152.52a.5.5,0,0,1,.14-.36.51.51,0,0,1,.71,0l9,9a.5.5,0,1,1-.71.71l-9-9A.49.49,0,0,1,509.36,152.52Z" transform="translate(-509.36 -143)"/><path class="cls-1" d="M509.36,152.46a.47.47,0,0,1,.14-.35l9-9a.5.5,0,1,1,.71.71l-9,8.95a.5.5,0,0,1-.71,0A.46.46,0,0,1,509.36,152.46Z" transform="translate(-509.36 -143)"/></svg>