<svg id="Layer_1" data-name="Layer 1" xmlns="http://www.w3.org/2000/svg" viewBox="0 0 14.49 9.96"><defs><style>.cls-1{fill:#231f20;}</style></defs><title>icon-checkmark</title><path class="cls-1" d="M695.34,157.47a.51.51,0,0,1-.36-.15.51.51,0,0,1,0-.71l9-9a.5.5,0,0,1,.71,0,.5.5,0,0,1,0,.7l-9,9A.49.49,0,0,1,695.34,157.47Z" transform="translate(-690.3 -147.51)"/><path class="cls-1" d="M695.28,157.47a.48.48,0,0,1-.36-.16l-4.47-4.63a.5.5,0,1,1,.71-.69l4.48,4.63a.5.5,0,0,1,0,.71A.52.52,0,0,1,695.28,157.47Z" transform="translate(-690.3 -147.51)"/></svg>