<svg id="Layer_1" data-name="Layer 1" xmlns="http://www.w3.org/2000/svg" viewBox="0 0 7.56 14.15"><defs><style>.cls-1{fill:#231f20;}</style></defs><title>icon-chevron-right-small</title><path class="cls-1" d="M577.08,151.19a.5.5,0,0,1-.35-.15l-6.56-6.55a.51.51,0,0,1,0-.71.5.5,0,0,1,.71,0l6.56,6.56a.5.5,0,0,1,0,.7A.51.51,0,0,1,577.08,151.19Z" transform="translate(-570.03 -143.63)"/><path class="cls-1" d="M570.53,157.79a.51.51,0,0,1-.36-.15.51.51,0,0,1,0-.71l6.56-6.55a.5.5,0,0,1,.71,0,.5.5,0,0,1,0,.7l-6.56,6.56A.5.5,0,0,1,570.53,157.79Z" transform="translate(-570.03 -143.63)"/></svg>