<svg id="Layer_2" data-name="Layer 2" xmlns="http://www.w3.org/2000/svg" viewBox="0 0 32.59 29.5"><defs><style>.cls-1{fill:#a4a6a7;stroke:#a4a6a7;stroke-miterlimit:10;stroke-width:0.5px;}</style></defs><title>df-clinic</title><path class="cls-1" d="M28,36.25h2.24v2.26a.52.52,0,0,0,.52.52h2.52a.52.52,0,0,0,.52-.52V36.25H36a.52.52,0,0,0,.52-.52V33.2a.52.52,0,0,0-.52-.53H33.78V30.41a.52.52,0,0,0-.52-.52H30.64a.54.54,0,0,0-.42.52v2.26H28a.52.52,0,0,0-.52.52v2.53A.52.52,0,0,0,28,36.25Zm2.78-3V30.43l2.48,0v2.8H36v2.51H33.24l0,2.78-2.5,0v-2.8H28V33.21Z" transform="translate(-15.71 -17.26)"/><path class="cls-1" d="M32,17.51H32L16,32l0,.09h3.14V44.85a1.56,1.56,0,0,0,1.65,1.66H43.18a1.57,1.57,0,0,0,1.65-1.66V32.06H48L48,32Zm-12.41,14H17.21L32,18.15l14.79,13.4H44.37l0,.05V44.85A1,1,0,0,1,43.18,46H20.83a1,1,0,0,1-1.15-1.15V31.6Z" transform="translate(-15.71 -17.26)"/></svg>